  0
SECTION
  2
HEADER
  9
$ACADVER
  1
AC1014
  9
$HANDSEED
  5
FFFF
  9
$MEASUREMENT
 70
     1
  0
ENDSEC
  0
SECTION
  2
TABLES
  0
TABLE
  2
VPORT
  5
8
330
0
100
AcDbSymbolTable
 70
     4
  0
VPORT
  5
2E
330
8
100
AcDbSymbolTableRecord
100
AcDbViewportTableRecord
  2
*ACTIVE
 70
     0
 10
0.0
 20
0.0
 11
1.0
 21
1.0
 12
210.0
 22
148.5
 13
0.0
 23
0.0
 14
10.0
 24
10.0
 15
10.0
 25
10.0
 16
0.0
 26
0.0
 36
1.0
 17
0.0
 27
0.0
 37
0.0
 40
341.0
 41
1.24
 42
50.0
 43
0.0
 44
0.0
 50
0.0
 51
0.0
 71
     0
 72
   100
 73
     1
 74
     3
 75
     0
 76
     0
 77
     0
 78
     0
  0
ENDTAB
  0
TABLE
  2
LTYPE
  5
5
330
0
100
AcDbSymbolTable
 70
     1
  0
LTYPE
  5
14
330
5
100
AcDbSymbolTableRecord
100
AcDbLinetypeTableRecord
  2
BYBLOCK
 70
     0
  3

 72
    65
 73
     0
 40
0.0
  0
LTYPE
  5
15
330
5
100
AcDbSymbolTableRecord
100
AcDbLinetypeTableRecord
  2
BYLAYER
 70
     0
  3

 72
    65
 73
     0
 40
0.0
  0
LTYPE
  5
16
330
5
100
AcDbSymbolTableRecord
100
AcDbLinetypeTableRecord
  2
CONTINUOUS
 70
     0
  3
Solid line
 72
    65
 73
     0
 40
0.0
  0
ENDTAB
  0
TABLE
  2
LAYER
  5
2
100
AcDbSymbolTable
 70
2
  0
LAYER
  5
50
100
AcDbSymbolTableRecord
100
AcDbLayerTableRecord
  2
0
 70
0
  6
CONTINUOUS
  0
LAYER
  5
51
100
AcDbSymbolTableRecord
100
AcDbLayerTableRecord
  2
图层_1
 70
0
  6
CONTINUOUS
  0
ENDTAB
  0
TABLE
  2
STYLE
  5
3
330
0
100
AcDbSymbolTable
 70
     1
  0
STYLE
  5
11
330
3
100
AcDbSymbolTableRecord
100
AcDbTextStyleTableRecord
  2
STANDARD
 70
     0
 40
0.0
 41
1.0
 50
0.0
 71
     0
 42
2.5
  3
txt
  4

  0
ENDTAB
  0
TABLE
  2
VIEW
  5
6
330
0
100
AcDbSymbolTable
 70
     0
  0
ENDTAB
  0
TABLE
  2
UCS
  5
7
330
0
100
AcDbSymbolTable
 70
     0
  0
ENDTAB
  0
TABLE
  2
APPID
  5
9
330
0
100
AcDbSymbolTable
 70
     2
  0
APPID
  5
12
330
9
100
AcDbSymbolTableRecord
100
AcDbRegAppTableRecord
  2
ACAD
 70
     0
  0
ENDTAB
  0
TABLE
  2
DIMSTYLE
  5
A
330
0
100
AcDbSymbolTable
 70
     1
  0
DIMSTYLE
105
27
330
A
100
AcDbSymbolTableRecord
100
AcDbDimStyleTableRecord
  2
ISO-25
 70
     0
  3

  4

  5

  6

  7

 40
1.0
 41
2.5
 42
0.625
 43
3.75
 44
1.25
 45
0.0
 46
0.0
 47
0.0
 48
0.0
140
2.5
141
2.5
142
0.0
143
0.03937007874016
144
1.0
145
0.0
146
1.0
147
0.625
 71
     0
 72
     0
 73
     0
 74
     0
 75
     0
 76
     0
 77
     1
 78
     8
170
     0
171
     3
172
     1
173
     0
174
     0
175
     0
176
     0
177
     0
178
     0
270
     2
271
     2
272
     2
273
     2
274
     3
340
11
275
     0
280
     0
281
     0
282
     0
283
     0
284
     8
285
     0
286
     0
287
     3
288
     0
  0
ENDTAB
  0
TABLE
  2
BLOCK_RECORD
  5
1
330
0
100
AcDbSymbolTable
 70
     1
  0
BLOCK_RECORD
  5
1F
330
1
100
AcDbSymbolTableRecord
100
AcDbBlockTableRecord
  2
*MODEL_SPACE
  0
BLOCK_RECORD
  5
1B
330
1
100
AcDbSymbolTableRecord
100
AcDbBlockTableRecord
  2
*PAPER_SPACE
  0
ENDTAB
  0
ENDSEC
  0
SECTION
  2
BLOCKS
  0
BLOCK
  5
20
330
1F
100
AcDbEntity
  8
0
100
AcDbBlockBegin
  2
*MODEL_SPACE
 70
     0
 10
0.0
 20
0.0
 30
0.0
  3
*MODEL_SPACE
  1

  0
ENDBLK
  5
21
330
1F
100
AcDbEntity
  8
0
100
AcDbBlockEnd
  0
BLOCK
  5
1C
330
1B
100
AcDbEntity
 67
     1
  8
0
100
AcDbBlockBegin
  2
*PAPER_SPACE
  1

  0
ENDBLK
  5
1D
330
1B
100
AcDbEntity
 67
     1
  8
0
100
AcDbBlockEnd
  0
ENDSEC
  0
SECTION
  2
ENTITIES
  0
SPLINE
  5
100
100
AcDbEntity
  8
图层_1
 62
7
100
AcDbSpline
 70
8
 71
3
 72
8
 73
4
 74
0
 40
0
 40
0
 40
0
 40
0
 40
1
 40
1
 40
1
 40
1
 10
6.880430
 20
288.346226
 30
0.0
 10
6.880430
 20
289.057426
 30
0.0
 10
7.252963
 20
289.548492
 30
0.0
 10
8.099629
 20
289.548492
 30
0.0
  0
LWPOLYLINE
  5
101
100
AcDbEntity
  8
图层_1
 62
7
100
AcDbPolyline
 90
4
 70
0
 10
15.228553
 20
283.418633
 30
0.0
 10
15.228553
 20
285.636896
 30
0.0
 10
6.880430
 20
285.636896
 30
0.0
 10
6.880430
 20
288.346226
 30
0.0
  0
SPLINE
  5
102
100
AcDbEntity
  8
图层_1
 62
7
100
AcDbSpline
 70
8
 71
3
 72
8
 73
4
 74
0
 40
0
 40
0
 40
0
 40
0
 40
1
 40
1
 40
1
 40
1
 10
7.625496
 20
291.834489
 30
0.0
 10
5.322565
 20
291.834489
 30
0.0
 10
4.238833
 20
290.632224
 30
0.0
 10
4.238833
 20
288.566359
 30
0.0
  0
LWPOLYLINE
  5
103
100
AcDbEntity
  8
图层_1
 62
7
100
AcDbPolyline
 90
4
 70
0
 10
8.099629
 20
289.548492
 30
0.0
 10
16.312285
 20
289.548492
 30
0.0
 10
16.312285
 20
291.834489
 30
0.0
 10
7.625496
 20
291.834489
 30
0.0
  0
LWPOLYLINE
  5
104
100
AcDbEntity
  8
图层_1
 62
7
100
AcDbPolyline
 90
5
 70
0
 10
4.238833
 20
288.566359
 30
0.0
 10
4.238833
 20
277.068641
 30
0.0
 10
6.880430
 20
277.068641
 30
0.0
 10
6.880430
 20
283.418633
 30
0.0
 10
15.228553
 20
283.418633
 30
0.0
  0
SPLINE
  5
105
100
AcDbEntity
  8
图层_1
 62
7
100
AcDbSpline
 70
8
 71
3
 72
8
 73
4
 74
0
 40
0
 40
0
 40
0
 40
0
 40
1
 40
1
 40
1
 40
1
 10
26.677578
 20
289.413025
 30
0.0
 10
26.135712
 20
291.038623
 30
0.0
 10
25.356780
 20
291.851422
 30
0.0
 10
23.798915
 20
291.851422
 30
0.0
  0
LWPOLYLINE
  5
106
100
AcDbEntity
  8
图层_1
 62
7
100
AcDbPolyline
 90
2
 70
0
 10
30.758506
 20
277.068641
 30
0.0
 10
26.677578
 20
289.413025
 30
0.0
  0
LWPOLYLINE
  5
107
100
AcDbEntity
  8
图层_1
 62
7
100
AcDbPolyline
 90
8
 70
0
 10
23.798915
 20
291.851422
 30
0.0
 10
21.394385
 20
291.851422
 30
0.0
 10
15.941858
 20
277.068641
 30
0.0
 10
18.701988
 20
277.068641
 30
0.0
 10
20.039720
 20
280.658503
 30
0.0
 10
26.779178
 20
280.641570
 30
0.0
 10
27.930643
 20
277.068641
 30
0.0
 10
30.758506
 20
277.068641
 30
0.0
  0
SPLINE
  5
108
100
AcDbEntity
  8
图层_1
 62
7
100
AcDbSpline
 70
8
 71
3
 72
8
 73
4
 74
0
 40
0
 40
0
 40
0
 40
0
 40
1
 40
1
 40
1
 40
1
 10
23.511049
 20
289.514625
 30
0.0
 10
24.120648
 20
289.514625
 30
0.0
 10
24.340781
 20
288.938892
 30
0.0
 10
24.543981
 20
288.227693
 30
0.0
  0
LWPOLYLINE
  5
109
100
AcDbEntity
  8
图层_1
 62
7
100
AcDbPolyline
 90
4
 70
0
 10
26.101845
 20
282.876767
 30
0.0
 10
20.767852
 20
282.876767
 30
0.0
 10
23.121582
 20
289.514625
 30
0.0
 10
23.511049
 20
289.514625
 30
0.0
  0
SPLINE
  5
10a
100
AcDbEntity
  8
图层_1
 62
7
100
AcDbSpline
 70
8
 71
3
 72
8
 73
4
 74
0
 40
0
 40
0
 40
0
 40
0
 40
1
 40
1
 40
1
 40
1
 10
43.613022
 20
277.068641
 30
0.0
 10
45.899020
 20
277.068641
 30
0.0
 10
47.016618
 20
278.203173
 30
0.0
 10
47.016618
 20
280.133570
 30
0.0
  0
LWPOLYLINE
  5
10b
100
AcDbEntity
  8
图层_1
 62
7
100
AcDbPolyline
 90
2
 70
0
 10
24.543981
 20
288.227693
 30
0.0
 10
26.101845
 20
282.876767
 30
0.0
  0
SPLINE
  5
10c
100
AcDbEntity
  8
图层_1
 62
7
100
AcDbSpline
 70
8
 71
3
 72
8
 73
4
 74
0
 40
0
 40
0
 40
0
 40
0
 40
1
 40
1
 40
1
 40
1
 10
47.016618
 20
288.769559
 30
0.0
 10
47.016618
 20
290.750757
 30
0.0
 10
45.729686
 20
291.851422
 30
0.0
 10
43.392889
 20
291.851422
 30
0.0
  0
LWPOLYLINE
  5
10d
100
AcDbEntity
  8
图层_1
 62
7
100
AcDbPolyline
 90
2
 70
0
 10
47.016618
 20
280.133570
 30
0.0
 10
47.016618
 20
288.769559
 30
0.0
  0
SPLINE
  5
10e
100
AcDbEntity
  8
图层_1
 62
7
100
AcDbSpline
 70
8
 71
3
 72
8
 73
4
 74
0
 40
0
 40
0
 40
0
 40
0
 40
1
 40
1
 40
1
 40
1
 10
44.307288
 20
280.370637
 30
0.0
 10
44.307288
 20
279.744104
 30
0.0
 10
43.934755
 20
279.303838
 30
0.0
 10
43.291289
 20
279.303838
 30
0.0
  0
LWPOLYLINE
  5
10f
100
AcDbEntity
  8
图层_1
 62
7
100
AcDbPolyline
 90
4
 70
0
 10
43.392889
 20
291.851422
 30
0.0
 10
33.249835
 20
291.851422
 30
0.0
 10
33.249835
 20
277.068641
 30
0.0
 10
43.613022
 20
277.068641
 30
0.0
  0
SPLINE
  5
110
100
AcDbEntity
  8
图层_1
 62
7
100
AcDbSpline
 70
8
 71
3
 72
8
 73
4
 74
0
 40
0
 40
0
 40
0
 40
0
 40
1
 40
1
 40
1
 40
1
 10
43.206623
 20
289.616225
 30
0.0
 10
43.917822
 20
289.616225
 30
0.0
 10
44.307288
 20
289.209825
 30
0.0
 10
44.307288
 20
288.583293
 30
0.0
  0
LWPOLYLINE
  5
111
100
AcDbEntity
  8
图层_1
 62
7
100
AcDbPolyline
 90
4
 70
0
 10
43.291289
 20
279.303838
 30
0.0
 10
35.959165
 20
279.303838
 30
0.0
 10
35.959165
 20
289.616225
 30
0.0
 10
43.206623
 20
289.616225
 30
0.0
  0
LWPOLYLINE
  5
112
100
AcDbEntity
  8
图层_1
 62
7
100
AcDbPolyline
 90
2
 70
0
 10
44.307288
 20
288.583293
 30
0.0
 10
44.307288
 20
280.370637
 30
0.0
  0
SPLINE
  5
113
100
AcDbEntity
  8
图层_1
 62
7
100
AcDbSpline
 70
8
 71
3
 72
8
 73
4
 74
0
 40
0
 40
0
 40
0
 40
0
 40
1
 40
1
 40
1
 40
1
 10
53.910590
 20
279.236105
 30
0.0
 10
53.165524
 20
279.236105
 30
0.0
 10
52.725258
 20
279.744104
 30
0.0
 10
52.725258
 20
280.404503
 30
0.0
  0
LWPOLYLINE
  5
114
100
AcDbEntity
  8
图层_1
 62
7
100
AcDbPolyline
 90
3
 70
0
 10
62.174046
 20
277.068641
 30
0.0
 10
62.174046
 20
279.236105
 30
0.0
 10
53.910590
 20
279.236105
 30
0.0
  0
SPLINE
  5
115
100
AcDbEntity
  8
图层_1
 62
7
100
AcDbSpline
 70
8
 71
3
 72
8
 73
4
 74
0
 40
0
 40
0
 40
0
 40
0
 40
1
 40
1
 40
1
 40
1
 10
50.100595
 20
280.099704
 30
0.0
 10
50.100595
 20
278.253973
 30
0.0
 10
51.218193
 20
277.068641
 30
0.0
 10
53.588857
 20
277.068641
 30
0.0
  0
LWPOLYLINE
  5
116
100
AcDbEntity
  8
图层_1
 62
7
100
AcDbPolyline
 90
10
 70
0
 10
52.725258
 20
280.404503
 30
0.0
 10
52.725258
 20
283.571032
 30
0.0
 10
61.090314
 20
283.554099
 30
0.0
 10
61.090314
 20
285.704630
 30
0.0
 10
52.725258
 20
285.704630
 30
0.0
 10
52.742192
 20
289.616225
 30
0.0
 10
61.886180
 20
289.616225
 30
0.0
 10
61.886180
 20
291.834489
 30
0.0
 10
50.100595
 20
291.834489
 30
0.0
 10
50.100595
 20
280.099704
 30
0.0
  0
LWPOLYLINE
  5
117
100
AcDbEntity
  8
图层_1
 62
7
100
AcDbPolyline
 90
2
 70
0
 10
53.588857
 20
277.068641
 30
0.0
 10
62.174046
 20
277.068641
 30
0.0
  0
SPLINE
  5
118
100
AcDbEntity
  8
图层_1
 62
7
100
AcDbSpline
 70
8
 71
3
 72
8
 73
4
 74
0
 40
0
 40
0
 40
0
 40
0
 40
1
 40
1
 40
1
 40
1
 10
78.584534
 20
279.371571
 30
0.0
 10
78.127335
 20
279.371571
 30
0.0
 10
77.771735
 20
279.744104
 30
0.0
 10
77.517736
 20
280.116637
 30
0.0
  0
LWPOLYLINE
  5
119
100
AcDbEntity
  8
图层_1
 62
7
100
AcDbPolyline
 90
3
 70
0
 10
79.380400
 20
277.068641
 30
0.0
 10
79.380400
 20
279.371571
 30
0.0
 10
78.584534
 20
279.371571
 30
0.0
  0
SPLINE
  5
11a
100
AcDbEntity
  8
图层_1
 62
7
100
AcDbSpline
 70
8
 71
3
 72
8
 73
4
 74
0
 40
0
 40
0
 40
0
 40
0
 40
1
 40
1
 40
1
 40
1
 10
75.858271
 20
283.113833
 30
0.0
 10
77.670136
 20
283.232366
 30
0.0
 10
78.720001
 20
284.383831
 30
0.0
 10
78.720001
 20
286.161829
 30
0.0
  0
LWPOLYLINE
  5
11b
100
AcDbEntity
  8
图层_1
 62
7
100
AcDbPolyline
 90
3
 70
0
 10
77.517736
 20
280.116637
 30
0.0
 10
75.502672
 20
283.113833
 30
0.0
 10
75.858271
 20
283.113833
 30
0.0
  0
SPLINE
  5
11c
100
AcDbEntity
  8
图层_1
 62
7
100
AcDbSpline
 70
8
 71
3
 72
8
 73
4
 74
0
 40
0
 40
0
 40
0
 40
0
 40
1
 40
1
 40
1
 40
1
 10
75.333339
 20
278.694239
 30
0.0
 10
75.841338
 20
277.898373
 30
0.0
 10
76.552537
 20
277.068641
 30
0.0
 10
77.991868
 20
277.068641
 30
0.0
  0
LWPOLYLINE
  5
11d
100
AcDbEntity
  8
图层_1
 62
7
100
AcDbPolyline
 90
8
 70
0
 10
78.720001
 20
286.161829
 30
0.0
 10
78.720001
 20
291.851422
 30
0.0
 10
65.037885
 20
291.851422
 30
0.0
 10
65.037885
 20
277.068641
 30
0.0
 10
67.628682
 20
277.068641
 30
0.0
 10
67.628682
 20
283.096900
 30
0.0
 10
72.488542
 20
283.096900
 30
0.0
 10
75.333339
 20
278.694239
 30
0.0
  0
SPLINE
  5
11e
100
AcDbEntity
  8
图层_1
 62
7
100
AcDbSpline
 70
8
 71
3
 72
8
 73
4
 74
0
 40
0
 40
0
 40
0
 40
0
 40
1
 40
1
 40
1
 40
1
 10
76.112271
 20
286.432762
 30
0.0
 10
76.112271
 20
285.721563
 30
0.0
 10
75.688938
 20
285.315164
 30
0.0
 10
75.011606
 20
285.315164
 30
0.0
  0
LWPOLYLINE
  5
11f
100
AcDbEntity
  8
图层_1
 62
7
100
AcDbPolyline
 90
2
 70
0
 10
77.991868
 20
277.068641
 30
0.0
 10
79.380400
 20
277.068641
 30
0.0
  0
LWPOLYLINE
  5
120
100
AcDbEntity
  8
图层_1
 62
7
100
AcDbPolyline
 90
5
 70
0
 10
75.011606
 20
285.315164
 30
0.0
 10
67.611748
 20
285.315164
 30
0.0
 10
67.611748
 20
289.633158
 30
0.0
 10
76.112271
 20
289.633158
 30
0.0
 10
76.112271
 20
286.432762
 30
0.0
  0
LWPOLYLINE
  5
121
100
AcDbEntity
  8
图层_1
 62
7
100
AcDbPolyline
 90
4
 70
1
 10
88.645028
 20
281.555969
 30
0.0
 10
88.645028
 20
283.960499
 30
0.0
 10
81.719303
 20
283.960499
 30
0.0
 10
81.719303
 20
281.555969
 30
0.0
  0
SPLINE
  5
122
100
AcDbEntity
  8
图层_1
 62
7
100
AcDbSpline
 70
8
 71
3
 72
8
 73
4
 74
0
 40
0
 40
0
 40
0
 40
0
 40
1
 40
1
 40
1
 40
1
 10
95.352733
 20
279.405438
 30
0.0
 10
94.523001
 20
279.405438
 30
0.0
 10
94.116602
 20
279.811837
 30
0.0
 10
94.116602
 20
280.607703
 30
0.0
  0
LWPOLYLINE
  5
123
100
AcDbEntity
  8
图层_1
 62
7
100
AcDbPolyline
 90
3
 70
0
 10
103.175924
 20
277.068641
 30
0.0
 10
103.175924
 20
279.405438
 30
0.0
 10
95.352733
 20
279.405438
 30
0.0
  0
SPLINE
  5
124
100
AcDbEntity
  8
图层_1
 62
7
100
AcDbSpline
 70
8
 71
3
 72
8
 73
4
 74
0
 40
0
 40
0
 40
0
 40
0
 40
1
 40
1
 40
1
 40
1
 10
91.407272
 20
280.184370
 30
0.0
 10
91.407272
 20
278.118506
 30
0.0
 10
92.338604
 20
277.068641
 30
0.0
 10
94.844734
 20
277.068641
 30
0.0
  0
LWPOLYLINE
  5
125
100
AcDbEntity
  8
图层_1
 62
7
100
AcDbPolyline
 90
4
 70
0
 10
94.116602
 20
280.607703
 30
0.0
 10
94.116602
 20
291.834489
 30
0.0
 10
91.407272
 20
291.834489
 30
0.0
 10
91.407272
 20
280.184370
 30
0.0
  0
LWPOLYLINE
  5
126
100
AcDbEntity
  8
图层_1
 62
7
100
AcDbPolyline
 90
2
 70
0
 10
94.844734
 20
277.068641
 30
0.0
 10
103.175924
 20
277.068641
 30
0.0
  0
ENDSEC
  0
SECTION
  2
OBJECTS
  0
DICTIONARY
  5
C
330
0
100
AcDbDictionary
  3
ACAD_GROUP
350
D
  3
ACAD_MLINESTYLE
350
17
  0
DICTIONARY
  5
D
330
C
100
AcDbDictionary
  0
DICTIONARY
  5
1A
330
C
100
AcDbDictionary
  0
DICTIONARY
  5
17
330
C
100
AcDbDictionary
  3
STANDARD
350
18
  0
DICTIONARY
  5
19
330
C
100
AcDbDictionary
  0
ENDSEC
  0
EOF
